<?xml version="1.0" standalone="no"?><!DOCTYPE svg PUBLIC "-//W3C//DTD SVG 1.1//EN" "http://www.w3.org/Graphics/SVG/1.1/DTD/svg11.dtd"><svg t="1622529983195" class="icon" viewBox="0 0 1746 1024" version="1.1" xmlns="http://www.w3.org/2000/svg" p-id="5892" xmlns:xlink="http://www.w3.org/1999/xlink" width="341.015625" height="200"><defs><style type="text/css"></style></defs><path d="M322.800561 19.667403A74.119442 74.119442 0 0 1 373.12709 0.000602H1673.033326A73.486972 73.486972 0 0 1 1746.821474 73.156281V950.813601A73.486972 73.486972 0 0 1 1673.033326 1023.999398H373.157208c-18.703037 0-36.713369-7.017404-50.356647-19.666801l-290.333776-442.789126a90.352835 90.352835 0 0 1 0-99.086942L322.800561 19.667403z" fill="#333333" p-id="5893"></path><path d="M1188.742131 315.331996a22.588209 22.588209 0 0 1 34.123254 29.394789l-2.198586 2.529879-361.411339 361.41134a22.588209 22.588209 0 0 1-34.123254-29.394789l2.198585-2.529879 361.41134-361.41134z" fill="#FFFFFF" p-id="5894"></path><path d="M827.330791 315.331996a22.588209 22.588209 0 0 1 29.394789-2.198586l2.52988 2.198586 361.411339 361.41134a22.588209 22.588209 0 0 1-29.394789 34.123254l-2.529879-2.198586-361.41134-361.41134a22.588209 22.588209 0 0 1 0-31.924668z" fill="#FFFFFF" p-id="5895"></path></svg>